<svg id="Layer_1_1_" enable-background="new 0 0 64 64" height="512" viewBox="0 0 64 64" width="512" xmlns="http://www.w3.org/2000/svg"><path d="m19 47 1 14h5v-17.882c-3.232 1.159-6 2.504-6 3.882z" fill="#d0382a"/><path d="m31.037 41.026 8.963 7.84 8.946-7.955 2.054.899v19.19h-26v-18z" fill="#fff"/><path d="m36 54-11-.579-8-.421v8h26v-6z" fill="#fce0b9"/><path d="m14 50v-3-2c0-1.105-.895-2-2-2h-.893-6.107c-1.105 0-2 .895-2 2v5c0 1.105.895 2 2 2h7c1.105 0 2-.895 2-2z" fill="#826731"/><path d="m48.851 40.995c-2.219-.618-3.851-.995-3.851-.995v2c-2.761 2.761-7.239 2.761-10 0v-2s-1.688.39-3.963 1.027l8.963 7.839z" fill="#d0382a"/><path d="m17 52h-5-7c-1.105 0-2 .895-2 2v5c0 1.105.895 2 2 2h12v-8z" fill="#826731"/><path d="m46 17h-17v12.19c0 1.781.791 3.469 2.159 4.609l4.703 2.577c.747.41 1.584.624 2.436.624h3.405c.851 0 1.689-.214 2.436-.624l4.703-2.577c1.367-1.14 2.158-2.829 2.158-4.609v-8.19z" fill="#fce0b9"/><path d="m51 21v5h1.5c1.381 0 2.5-1.119 2.5-2.5 0-1.036-.63-1.924-1.527-2.304-.299-.126-.628-.196-.973-.196z" fill="#fce0b9"/><path d="m46 12v5l5 4h1.5c.345 0 .674.07.973.196.377-1.267.527-2.806.527-4.196 0-7.732-6.268-14-14-14-3.81 0-7.257 1.53-9.782 4h10.782c2.761 0 5 2.239 5 5z" fill="#1a326e"/><path d="m46 17v-5c0-2.761-2.239-5-5-5h-14c-2.761 0-5 2.239-5 5s2.239 5 5 5h.438z" fill="#1a326e"/><path d="m27 15c-2.419 0-4.436-1.718-4.899-4-.066.323-.101.657-.101 1 0 2.761 2.239 5 5 5h.438 18.562v-2h-18.562z" fill="#13244f"/><path d="m40.738 5.333h-8.463c-.737.491-1.426 1.05-2.057 1.667h10.782c2.761 0 5 2.239 5 5v5l2.083 1.667h1.917v-4.071c0-5.116-4.147-9.263-9.262-9.263z" fill="#13244f"/><path d="m46 17h-17v3h17l5 4v-3z" fill="#f5cba1"/><path d="m44.138 36.376c-.747.41-1.584.624-2.436.624h-3.405c-.851 0-1.689-.214-2.436-.624l-.861-.472v6.096c2.761 2.761 7.239 2.761 10 0v-6.096z" fill="#fce0b9"/><path d="m45 35.904-.862.472c-.747.41-1.584.624-2.436.624h-3.405c-.851 0-1.689-.214-2.436-.624l-.861-.472v6.096c.158.158.323.304.491.444l9.509-6.158z" fill="#f5cba1"/><circle cx="21" cy="34" fill="#fff" r="6"/><path d="m16.209 30.398c-.303.403-.56.842-.756 1.315 1.412 1.135 3.409 1.787 5.547 1.787s4.135-.652 5.546-1.787c-.195-.473-.452-.912-.756-1.315l-.651-.734c-.128-.122-.259-.239-.397-.349-.867.74-2.257 1.185-3.742 1.185s-2.875-.445-3.743-1.185c-.138.11-.27.227-.397.349z" fill="#d0382a"/><path d="m25.791 37.602c.303-.403.56-.842.756-1.315-1.412-1.135-3.409-1.787-5.547-1.787s-4.135.652-5.546 1.787c.195.473.452.912.756 1.315l.65.734c.128.122.259.239.397.349.868-.74 2.258-1.185 3.743-1.185s2.875.445 3.743 1.185c.138-.11.27-.227.397-.349z" fill="#d0382a"/><path d="m12 43h-.893-2.107c1.105 0 2 .895 2 2v2 3c0 1.105-.895 2-2 2h3c1.105 0 2-.895 2-2v-3-2c0-1.105-.895-2-2-2z" fill="#614d25"/><path d="m5 57c0-1.105.895-2 2-2h7 3v-2-1h-5-7c-1.105 0-2 .895-2 2v5c0 1.105.895 2 2 2z" fill="#614d25"/><path d="m11.107 43c.028-.42.06-.84.098-1.259l1.589-17.483c.137-1.504.206-3.015.206-4.526v-13.732c0-1.657-1.343-3-3-3h-2c-1.657 0-3 1.343-3 3v13.732c0 1.511.069 3.022.205 4.527l1.589 17.483c.039.418.072.838.099 1.258" fill="#d4ba85"/><path d="m10.86 3.14c.082.274.14.559.14.86v13.732c0 1.511-.069 3.022-.205 4.527l-1.59 17.482c-.038.419-2.478 1.259-2.478 1.259l.067.741c.039.419.072.839.099 1.259h4.214c.027-.42.06-.84.098-1.259l1.589-17.483c.137-1.504.206-3.015.206-4.526v-13.732c0-1.356-.905-2.488-2.14-2.86z" fill="#c4ac7b"/><path d="m51 41.81c4.541 1.381 10 3.254 10 5.19l-1 14h-17v-7l8-7z" fill="#d0382a"/><path d="m17 59h26v2h-26z" fill="#f5cba1"/><path d="m20 53h-6v-6h5z" fill="#fce0b9"/><path d="m33 26.75c-.965 0-1.75-.785-1.75-1.75s.785-1.75 1.75-1.75 1.75.785 1.75 1.75-.785 1.75-1.75 1.75zm0-2c-.138 0-.25.112-.25.25 0 .275.5.275.5 0 0-.138-.112-.25-.25-.25z"/><path d="m45 26.75c-.965 0-1.75-.785-1.75-1.75s.785-1.75 1.75-1.75 1.75.785 1.75 1.75-.785 1.75-1.75 1.75zm0-2c-.138 0-.25.112-.25.25 0 .275.5.275.5 0 0-.138-.112-.25-.25-.25z"/><path d="m39 33.75c-2.068 0-3.75-1.682-3.75-3.75h1.5c0 1.241 1.009 2.25 2.25 2.25s2.25-1.009 2.25-2.25h1.5c0 2.068-1.682 3.75-3.75 3.75z"/><path d="m46 39.208v-2.711l3.322-1.82c.057-.031.11-.067.16-.109 1.6-1.335 2.518-3.295 2.518-5.378v-2.19h.5c1.93 0 3.5-1.57 3.5-3.5 0-1.131-.548-2.128-1.383-2.768.245-1.1.383-2.389.383-3.732 0-8.271-6.729-15-15-15-3.816 0-7.393 1.425-10.171 4h-2.829c-3.309 0-6 2.691-6 6s2.691 6 6 6h1v11.19c0 2.083.918 4.043 2.519 5.377.049.042.103.078.16.109l3.321 1.82v2.711c-4.83 1.152-13.902 3.679-15.687 6.793h-3.313v-1c0-1.59-1.247-2.882-2.813-2.981.005-.063.009-.125.015-.187l1.589-17.482c.139-1.527.209-3.08.209-4.618v-13.732c0-2.206-1.794-4-4-4h-2c-2.206 0-4 1.794-4 4v13.732c0 1.538.07 3.091.209 4.617l1.589 17.484c.006.056.009.111.014.167h-.812c-1.654 0-3 1.346-3 3v5c0 .771.301 1.468.78 2-.479.532-.78 1.229-.78 2v5c0 1.654 1.346 3 3 3h12 43c.524 0 .96-.405.998-.929l1.002-14.071c0-3.531-10.627-6.512-16-7.792zm-10.142 15.782 6.142.877v4.133h-24v-5.946zm6.483-1.742c-.178.156-.274.374-.309.605l-5.979-.851-10.053-.53v-8.808c1.434-.521 3.048-1.044 4.774-1.539l8.568 7.494c.188.165.423.247.658.247.238 0 .475-.084.665-.253l8.456-7.519c.298.085.588.172.88.258v4.194zm-6.341-15.705c.728.298 1.509.457 2.298.457h3.404c.789 0 1.57-.159 2.298-.457v4.024c-2.282 2.001-5.718 2.001-8 0zm4 7.524c1.347 0 2.69-.34 3.901-1.008l-3.906 3.473-4.129-3.611c1.269.758 2.7 1.146 4.134 1.146zm6.81-3.595-.857.762c.019-.077.047-.153.047-.234v-.732c.272.067.541.135.81.204zm5.69-16.472h-.5v-3h.5c.827 0 1.5.673 1.5 1.5s-.673 1.5-1.5 1.5zm-12.5-21c7.168 0 13 5.832 13 13 0 1.087-.095 2.128-.271 3.023-.077-.005-.151-.023-.229-.023h-1.15l-4.35-3.48v-4.52c0-3.309-2.691-6-6-6h-7.912c2.051-1.295 4.422-2 6.912-2zm-17 8c0-2.206 1.794-4 4-4h14c2.206 0 4 1.794 4 4v4h-18c-2.206 0-4-1.794-4-4zm7 17.19v-11.19h15.65l4.35 3.48v7.709c0 1.457-.629 2.83-1.729 3.781l-4.613 2.53c-.598.328-1.274.5-1.956.5h-3.404c-.682 0-1.358-.173-1.956-.5l-4.614-2.528c-1.099-.952-1.728-2.325-1.728-3.782zm4.07 13.161-.976-.853c.301-.077.602-.154.906-.229v.731c0 .122.028.239.07.351zm-10.07 2.088v7.928l-3.628-.191-.372-5.176c0-.607 1.555-1.546 4-2.561zm-5.931 3.561.291 4.07-.36-.019v-.051c0-.552-.448-1-1-1h-2.184c.112-.314.184-.648.184-1v-2zm-10.278-6.349-1.589-17.483c-.134-1.466-.202-2.959-.202-4.436v-13.732c0-1.103.897-2 2-2h2c1.103 0 2 .897 2 2v13.732c0 1.478-.068 2.97-.202 4.437l-1.588 17.48c-.011.117-.018.234-.028.351h-2.364c-.01-.116-.017-.233-.027-.349zm-3.791 3.349c0-.551.449-1 1-1h7c.551 0 1 .449 1 1v5c0 .551-.449 1-1 1h-7c-.551 0-1-.449-1-1zm12 15h-11c-.551 0-1-.449-1-1v-5c0-.551.449-1 1-1h7 4zm43.069 0h-15.069v-5.546l7.659-6.701c.216-.19.341-.464.341-.753v-4.028c4.647 1.513 8.001 3.11 8.002 3.957z"/><path d="m21 41c3.86 0 7-3.14 7-7s-3.14-7-7-7-7 3.14-7 7 3.14 7 7 7zm-5-7c0-.776.193-1.502.51-2.158 1.244.741 2.819 1.158 4.49 1.158s3.246-.417 4.49-1.158c.317.656.51 1.382.51 2.158s-.193 1.502-.51 2.158c-1.244-.741-2.819-1.158-4.49-1.158s-3.246.417-4.49 1.158c-.317-.656-.51-1.382-.51-2.158zm1.74 3.76c.906-.482 2.057-.76 3.26-.76s2.354.278 3.26.76c-.878.762-2.009 1.24-3.26 1.24s-2.382-.478-3.26-1.24zm6.52-7.52c-.906.482-2.057.76-3.26.76s-2.354-.278-3.26-.76c.878-.762 2.009-1.24 3.26-1.24s2.382.478 3.26 1.24z"/><path d="m16 17h2v7h-2z"/><path d="m16 13h2v2h-2z"/></svg>